<?xml version="1.0" standalone="no"?><!DOCTYPE svg PUBLIC "-//W3C//DTD SVG 1.1//EN" "http://www.w3.org/Graphics/SVG/1.1/DTD/svg11.dtd"><svg t="1569569452170" class="icon" viewBox="0 0 1024 1024" version="1.1" xmlns="http://www.w3.org/2000/svg" p-id="5013" xmlns:xlink="http://www.w3.org/1999/xlink" width="200" height="200"><defs><style type="text/css"></style></defs><path d="M90.258176 848.52215466L933.08326402 848.52215466c46.36262401 0 84.29568 37.933056 84.29567998 84.29568s-37.933056 84.29568-84.29567999 84.29568001l-842.69337602 0c-46.36262401 0-84.29568-37.933056-84.29568-84.29568001-0.13171201-46.36262402 37.801344-84.29568 84.16396801-84.29568zM90.258176 435.86845867L928.078208 435.86845867c46.36262401 0 84.29568 37.933056 84.29568 84.29567999s-37.933056 84.29568-84.29568 84.29568l-837.820032 0c-46.36262401 0-84.29568-37.933056-84.29568-84.29568s37.933056-84.29568 84.29568-84.29567999zM90.258176 15.70717865L933.08326401 15.70717864c46.36262401 0 84.29568 37.933056 84.29567999 84.29568001s-37.933056 84.29568-84.29567999 84.29568003l-842.69337601 0c-46.36262401 0-84.29568-37.933056-84.29568001-84.29568003-0.13171201-46.36262402 37.801344-84.29568 84.16396801-84.29568z" fill="#ffffff" p-id="5014"></path></svg>